<?xml version="1.0"?>
<svg version="1.1" xmlns="http://www.w3.org/2000/svg" width="400px" height="200px" style=""><path fill="#" d="M64.314453125,111.23828125q0,2.70703125-1.9482421875,4.265625t-5.4208984375,1.55859375q-3.19921875,0-5.66015625-1.203125l0-3.9375q2.0234375,0.90234375,3.4248046875,1.271484375t2.5634765625,0.369140625q1.39453125,0,2.1396484375-0.533203125t0.7451171875-1.5859375q0-0.587890625-0.328125-1.0458984375t-0.9638671875-0.8818359375t-2.5908203125-1.353515625q-1.83203125-0.861328125-2.748046875-1.654296875t-1.462890625-1.845703125t-0.546875-2.4609375q0-2.65234375,1.7978515625-4.169921875t4.9697265625-1.517578125q1.55859375,0,2.9736328125,0.369140625t2.9599609375,1.0390625l-1.3671875,3.294921875q-1.599609375-0.65625-2.6455078125-0.916015625t-2.0576171875-0.259765625q-1.203125,0-1.845703125,0.560546875t-0.642578125,1.462890625q0,0.560546875,0.259765625,0.9775390625t0.8271484375,0.806640625t2.6865234375,1.4013671875q2.802734375,1.33984375,3.841796875,2.6865234375t1.0390625,3.3017578125z M82.09841796875,116.7890625l-1.17578125-5.345703125l-1.5859375-6.75390625l-0.095703125,0l-2.7890625,12.099609375l-4.484375,0l-4.34765625-15.28515625l4.15625,0l1.763671875,6.767578125q0.423828125,1.818359375,0.861328125,5.017578125l0.08203125,0q0.0546875-1.0390625,0.478515625-3.294921875l0.21875-1.162109375l1.88671875-7.328125l4.59375,0l1.791015625,7.328125q0.0546875,0.30078125,0.1708984375,0.888671875t0.2255859375,1.2509765625t0.1982421875,1.298828125t0.1025390625,1.0185546875l0.08203125,0q0.123046875-0.984375,0.4375-2.7001953125t0.451171875-2.3173828125l1.83203125-6.767578125l4.087890625,0l-4.40234375,15.28515625l-4.5390625,0z M95.2476171875,97.552734375q0-2.037109375,2.26953125-2.037109375t2.26953125,2.037109375q0,0.970703125-0.5673828125,1.5107421875t-1.7021484375,0.5400390625q-2.26953125,0-2.26953125-2.05078125z M99.5952734375,116.7890625l-4.169921875,0l0-15.28515625l4.169921875,0l0,15.28515625z M114.34408203125,104.634765625l-3.609375,0l0,12.154296875l-4.169921875,0l0-12.154296875l-2.296875,0l0-2.009765625l2.296875-1.12109375l0-1.12109375q0-2.611328125,1.28515625-3.814453125t4.115234375-1.203125q2.16015625,0,3.841796875,0.642578125l-1.06640625,3.0625q-1.2578125-0.396484375-2.32421875-0.396484375q-0.888671875,0-1.28515625,0.5263671875t-0.396484375,1.3466796875l0,0.95703125l3.609375,0l0,3.130859375z M125.100703125,113.740234375q1.09375,0,2.625-0.478515625l0,3.103515625q-1.55859375,0.697265625-3.828125,0.697265625q-2.501953125,0-3.6435546875-1.2646484375t-1.1416015625-3.7939453125l0-7.369140625l-1.99609375,0l0-1.763671875l2.296875-1.39453125l1.203125-3.2265625l2.666015625,0l0,3.25390625l4.279296875,0l0,3.130859375l-4.279296875,0l0,7.369140625q0,0.888671875,0.4990234375,1.3125t1.3193359375,0.423828125z M142.2662890625,116.7890625l0-19.98828125l4.23828125,0l0,19.98828125l-4.23828125,0z M167.24166015625,116.7890625l-4.169921875,0l0-8.927734375q0-1.654296875-0.587890625-2.4814453125t-1.873046875-0.8271484375q-1.75,0-2.529296875,1.1689453125t-0.779296875,3.8759765625l0,7.19140625l-4.169921875,0l0-15.28515625l3.185546875,0l0.560546875,1.955078125l0.232421875,0q0.697265625-1.107421875,1.9208984375-1.6748046875t2.7822265625-0.5673828125q2.666015625,0,4.046875,1.4423828125t1.380859375,4.1630859375l0,9.966796875z M184.12328125,112.25q0,2.3515625-1.6337890625,3.58203125t-4.8876953125,1.23046875q-1.66796875,0-2.84375-0.2255859375t-2.201171875-0.6630859375l0-3.4453125q1.162109375,0.546875,2.6181640625,0.916015625t2.5634765625,0.369140625q2.26953125,0,2.26953125-1.3125q0-0.4921875-0.30078125-0.7998046875t-1.0390625-0.697265625t-1.96875-0.9091796875q-1.763671875-0.73828125-2.5908203125-1.3671875t-1.203125-1.4423828125t-0.3759765625-2.0029296875q0-2.037109375,1.5791015625-3.1513671875t4.4775390625-1.1142578125q2.76171875,0,5.373046875,1.203125l-1.2578125,3.0078125q-1.1484375-0.4921875-2.146484375-0.806640625t-2.037109375-0.314453125q-1.845703125,0-1.845703125,0.998046875q0,0.560546875,0.5947265625,0.970703125t2.6044921875,1.216796875q1.791015625,0.724609375,2.625,1.353515625t1.23046875,1.44921875t0.396484375,1.955078125z M189.12404296875,97.552734375q0-2.037109375,2.26953125-2.037109375t2.26953125,2.037109375q0,0.970703125-0.5673828125,1.5107421875t-1.7021484375,0.5400390625q-2.26953125,0-2.26953125-2.05078125z M193.47169921875,116.7890625l-4.169921875,0l0-15.28515625l4.169921875,0l0,15.28515625z M213.0740234375,101.50390625l0,2.119140625l-2.392578125,0.615234375q0.65625,1.025390625,0.65625,2.296875q0,2.4609375-1.7158203125,3.8349609375t-4.7646484375,1.3740234375l-0.751953125-0.041015625l-0.615234375-0.068359375q-0.642578125,0.4921875-0.642578125,1.09375q0,0.90234375,2.296875,0.90234375l2.59765625,0q2.515625,0,3.8349609375,1.080078125t1.3193359375,3.171875q0,2.6796875-2.2353515625,4.15625t-6.4189453125,1.4765625q-3.19921875,0-4.8876953125-1.1142578125t-1.6884765625-3.1240234375q0-1.380859375,0.861328125-2.310546875t2.529296875-1.326171875q-0.642578125-0.2734375-1.12109375-0.8955078125t-0.478515625-1.3193359375q0-0.875,0.505859375-1.4560546875t1.462890625-1.1416015625q-1.203125-0.51953125-1.9072265625-1.66796875t-0.7041015625-2.70703125q0-2.501953125,1.626953125-3.869140625t4.6484375-1.3671875q0.642578125,0,1.5244140625,0.1162109375t1.1279296875,0.1708984375l5.33203125,0z M201.2751953125,118.94921875q0,0.861328125,0.8271484375,1.353515625t2.3173828125,0.4921875q2.2421875,0,3.513671875-0.615234375t1.271484375-1.681640625q0-0.861328125-0.751953125-1.189453125t-2.32421875-0.328125l-2.16015625,0q-1.1484375,0-1.9208984375,0.5400390625t-0.7724609375,1.4287109375z M202.7927734375,106.5078125q0,1.244140625,0.5673828125,1.96875t1.7294921875,0.724609375q1.17578125,0,1.72265625-0.724609375t0.546875-1.96875q0-2.76171875-2.26953125-2.76171875q-2.296875,0-2.296875,2.76171875z M231.62361328125,116.7890625l-4.169921875,0l0-8.927734375q0-3.30859375-2.4609375-3.30859375q-1.75,0-2.529296875,1.189453125t-0.779296875,3.85546875l0,7.19140625l-4.169921875,0l0-21.2734375l4.169921875,0l0,4.333984375q0,0.505859375-0.095703125,2.37890625l-0.095703125,1.23046875l0.21875,0q1.39453125-2.2421875,4.4296875-2.2421875q2.693359375,0,4.087890625,1.44921875t1.39453125,4.15625l0,9.966796875z M244.280625,113.740234375q1.09375,0,2.625-0.478515625l0,3.103515625q-1.55859375,0.697265625-3.828125,0.697265625q-2.501953125,0-3.6435546875-1.2646484375t-1.1416015625-3.7939453125l0-7.369140625l-1.99609375,0l0-1.763671875l2.296875-1.39453125l1.203125-3.2265625l2.666015625,0l0,3.25390625l4.279296875,0l0,3.130859375l-4.279296875,0l0,7.369140625q0,0.888671875,0.4990234375,1.3125t1.3193359375,0.423828125z"/><path fill="#" d=""/></svg>
